<svg xmlns="http://www.w3.org/2000/svg" viewBox="0 0 180 60" width="180" height="60"><title>Proyecto nuevo</title><style>		.s0 { fill: #121212 } 		.s1 { fill: #8cc542 } 		.s2 { fill: #618e2d } 	</style><path id="GROWTHER" class="s0" aria-label="GROWTHER" d="m29.3 20.9c-5.1 0-8.5 3.6-8.5 8.6 0 5.1 3.4 8.6 8.6 8.6 4.4 0 7-2.7 8-5.2v-4.5h-8.8v3.3h4.7c-0.7 1.5-1.9 2.3-3.5 2.3-2.8 0-4.3-1.6-4.3-4.5 0-2.6 1.5-4.2 3.9-4.2 1.3 0 2.2 0.5 2.7 1.3h5.1c-0.7-3.5-3.6-5.7-7.9-5.7zm19.2 5.9c0 1.1-0.7 1.7-2 1.7h-2.3v-3.5h2.3c1.3 0 2 0.7 2 1.8zm-9-5.7v16.9h4.7v-6.2h0.5l3.4 6.2h5.2l-3.8-6.6c2.5-0.8 3.7-2.7 3.7-4.9 0-3-2.1-5.4-6.3-5.4zm32.7 8.4c0-5.1-3.9-8.7-8.7-8.7-4.8 0-8.7 3.6-8.7 8.7 0 5.1 3.9 8.7 8.7 8.7 4.8 0 8.7-3.6 8.7-8.7zm-12.6 0c0-2.7 1.5-4.4 3.9-4.4 2.4 0 3.9 1.7 3.9 4.4 0 2.6-1.5 4.3-3.9 4.3-2.4 0-3.9-1.7-3.9-4.3zm18.1 8.5h5.8l2.3-10.4 2.4 10.4h5.8l4.1-16.9h-5.1l-1.9 11.5-2.6-11.5h-5.2l-2.7 11.5-1.9-11.5h-5.1zm21.5-13.2h4.4v13.2h4.7v-13.2h4.5v-3.7h-13.6zm25.8 13.1h4.7v-16.9h-4.7v6.4h-5.7v-6.4h-4.7v16.9h4.7v-6.8h5.7zm18.3-16.9h-10.9v16.9h10.9v-3.7h-6.2v-3.1h5.4v-3.5h-5.4v-2.8h6.2zm11.2 5.7c0 1.1-0.6 1.8-1.9 1.8h-2.3v-3.6h2.3c1.3 0 1.9 0.7 1.9 1.8zm-8.9-5.7v16.9h4.7v-6.2h0.5l3.3 6.2h5.3l-3.8-6.6c2.5-0.8 3.7-2.7 3.7-4.9 0-3-2.1-5.4-6.3-5.4z"></path><path id="&lt;Path&gt;" class="s1" d="m97.7 19l-11.4-14.6v7.7l5.8 6.9z"></path><path id="&lt;Path&gt;" class="s2" d="m75.1 18.9q-0.1 0.1-0.1 0.1h5.8l5.5-6.9v-7.7z"></path></svg>